<svg width="17" height="16" viewBox="0 0 17 16" fill="none" xmlns="http://www.w3.org/2000/svg">
<path d="M8.9299 13.2025L12.7099 15.6025C13.1974 15.91 13.7974 15.4525 13.6549 14.89L12.5599 10.585C12.5303 10.4657 12.535 10.3404 12.5735 10.2236C12.612 10.1069 12.6826 10.0033 12.7774 9.92499L16.1674 7.09749C16.6099 6.72999 16.3849 5.98749 15.8074 5.94999L11.3824 5.66499C11.2617 5.65796 11.1456 5.61592 11.0484 5.544C10.9511 5.47207 10.877 5.37338 10.8349 5.25999L9.1849 1.10499C9.14122 0.984915 9.06166 0.881191 8.957 0.807895C8.85234 0.734599 8.72767 0.695282 8.5999 0.695282C8.47213 0.695282 8.34745 0.734599 8.2428 0.807895C8.13814 0.881191 8.05858 0.984915 8.0149 1.10499L6.3649 5.25999C6.32285 5.37338 6.24867 5.47207 6.15144 5.544C6.05421 5.61592 5.93814 5.65796 5.8174 5.66499L1.3924 5.94999C0.814899 5.98749 0.589899 6.72999 1.0324 7.09749L4.4224 9.92499C4.51715 10.0033 4.58784 10.1069 4.62632 10.2236C4.6648 10.3404 4.66951 10.4657 4.6399 10.585L3.6274 14.575C3.4549 15.25 4.1749 15.7975 4.7524 15.43L8.2699 13.2025C8.36854 13.1398 8.48301 13.1065 8.5999 13.1065C8.71679 13.1065 8.83126 13.1398 8.9299 13.2025Z" fill="#FACC15"/>
</svg>
